# xmcd
#
# Track frame offsets: 
#        150
#        22059
#        40225
#        59921
#        76517
#        104673
#        124658
#        146245
#        166724
#        188035
#        208950
#        230236
#        258295
#        278719
#
# Disc length: 3965 seconds
#
# Revision: 0
# Processed by: cddbd v1.5.2PL0 Copyright (c) Steve Scherf et al.
# Submitted via: ExactAudioCopy v1.0b3
#
DISCID=d00f7b0e
DTITLE=Various Artist - Southern Soul Hits Vol.1
DYEAR=2009
DGENRE=Southern Soul,Blues,WVOL
TTITLE0=Ms. Jody - Your Dog's About To Kill My Cat
TTITLE1=O.B. Buchana - Let's Get Drunk
TTITLE2=Lee Shot Williams - I'm A Nibble Man
TTITLE3=Denise LaSalle - Pay Before You Pump
TTITLE4=David Brinston - Somebody's Cutting My Cake
TTITLE5=Carl Sims - I Like This Place
TTITLE6=Ms. Jody - I Never Take A Day Off
TTITLE7=Donnie Ray - You're Leaving
TTITLE8=Sheba Potts-Wright - Big Hand Man
TTITLE9=Carl Sims - I Needed A Woman
TTITLE10=Denise LaSalle - Snap Crackle And Pop
TTITLE11=Donnie Ray - Letter To My Baby
TTITLE12=Luther Lackey - I Should Have Stayed Scared
TTITLE13=Quinn Golden - Dance Party
EXTD=
EXTT0=
EXTT1=
EXTT2=
EXTT3=
EXTT4=
EXTT5=
EXTT6=
EXTT7=
EXTT8=
EXTT9=
EXTT10=
EXTT11=
EXTT12=
EXTT13=
PLAYORDER=
